<?xml version="1.0" encoding="UTF-8" ?>
<!DOCTYPE svg PUBLIC "-//W3C//DTD SVG 1.1//EN" "http://www.w3.org/Graphics/SVG/1.1/DTD/svg11.dtd">
<svg width="512pt" height="512pt" viewBox="0 0 512 512" version="1.1" xmlns="http://www.w3.org/2000/svg">
<g id="#030100ff">
<path fill="#030100" opacity="1.00" d=" M 143.35 59.48 C 146.65 55.25 151.38 51.59 156.94 51.36 C 163.12 50.79 169.24 53.12 174.05 56.91 C 182.80 63.73 188.93 73.21 194.23 82.81 C 206.21 104.45 213.85 128.08 223.23 150.88 C 244.94 146.96 267.22 147.63 289.01 150.62 C 296.48 130.88 303.45 110.90 312.79 91.95 C 318.57 80.55 324.70 68.98 333.95 59.96 C 339.01 55.00 345.69 51.29 352.93 51.27 C 358.20 50.87 363.11 53.73 366.57 57.51 C 372.70 64.14 376.10 72.68 379.12 81.05 C 388.85 108.29 391.56 137.36 399.98 164.96 C 402.58 173.66 406.58 182.01 407.40 191.17 C 410.43 217.34 399.08 243.46 381.53 262.45 C 380.10 264.19 377.75 265.57 377.67 268.05 C 375.37 289.50 370.06 310.89 359.83 329.99 C 348.29 352.33 329.68 370.21 319.14 393.12 C 313.87 405.75 310.15 419.45 301.14 430.11 C 293.27 439.21 289.01 452.20 277.41 457.50 C 266.48 461.48 254.22 461.61 243.03 458.61 C 234.93 456.28 227.08 451.87 222.15 444.88 C 215.87 436.16 208.11 428.45 203.16 418.83 C 198.45 409.75 196.00 399.72 191.42 390.59 C 184.24 375.79 173.76 362.99 164.32 349.63 C 156.22 338.23 149.08 326.04 144.21 312.89 C 138.47 297.58 135.41 281.40 133.71 265.18 C 118.02 250.94 107.34 231.17 104.56 210.13 C 102.98 198.39 104.08 186.23 108.23 175.12 C 119.53 145.36 121.55 113.09 131.88 83.04 C 134.76 74.79 137.94 66.44 143.35 59.48 M 147.92 64.03 C 142.42 71.37 139.67 80.30 136.95 88.94 C 129.83 112.28 125.88 136.42 119.84 160.04 C 116.62 172.34 110.63 184.07 110.17 196.97 C 109.70 220.71 120.09 244.49 138.00 260.10 C 139.87 261.42 139.43 263.94 139.87 265.90 C 143.50 294.22 151.57 322.94 169.18 345.91 C 182.58 363.39 195.29 381.64 204.01 401.97 C 204.66 384.65 203.21 367.14 206.42 350.00 C 209.91 333.11 221.54 319.15 234.90 308.84 C 225.02 322.79 214.50 337.51 212.27 354.93 C 210.01 370.85 210.91 386.97 210.56 403.00 C 210.80 409.19 209.45 415.88 212.45 421.62 C 217.51 430.05 225.10 437.79 235.00 440.00 C 240.30 441.05 246.60 440.67 250.77 436.85 C 255.17 432.35 255.50 425.68 256.44 419.81 C 246.90 415.47 237.14 409.38 232.96 399.27 C 236.08 401.19 239.01 403.39 241.83 405.73 C 241.00 403.93 239.56 402.07 240.45 400.01 C 241.66 397.39 244.53 396.39 246.98 395.34 L 247.25 395.38 C 256.36 393.82 266.31 397.24 274.90 392.75 C 276.75 394.58 277.93 396.98 279.44 399.09 C 274.31 407.70 266.53 414.40 257.88 419.31 C 259.44 425.04 259.85 431.48 263.75 436.25 C 267.77 438.75 272.88 439.07 277.46 438.25 C 286.34 436.36 293.59 429.90 298.40 422.44 C 300.27 419.26 302.45 415.91 302.38 412.08 C 303.14 392.07 304.28 371.93 301.88 351.99 C 298.43 335.41 288.56 321.15 278.54 307.85 C 281.76 310.11 284.58 312.87 287.35 315.64 C 297.24 325.47 305.97 337.42 308.42 351.44 C 310.53 367.00 309.51 382.74 309.30 398.39 C 311.22 394.62 312.75 390.66 314.80 386.96 C 326.63 364.73 344.57 346.41 356.01 323.94 C 359.48 317.27 361.93 310.13 364.34 303.03 C 368.40 290.30 369.55 276.92 372.20 263.89 C 372.41 261.63 374.42 260.31 375.79 258.74 C 391.62 242.70 402.08 220.75 401.68 197.95 C 401.33 189.09 398.71 180.52 395.71 172.23 C 394.44 168.91 393.51 165.43 391.53 162.43 C 391.73 160.65 391.12 158.92 390.74 157.20 C 384.20 130.82 380.24 103.66 370.60 78.13 C 369.35 73.28 367.24 68.58 364.32 64.50 C 361.28 60.41 356.40 56.79 351.03 57.84 C 342.03 59.13 335.66 66.55 330.69 73.56 C 313.36 99.30 304.94 129.53 292.14 157.52 C 268.01 153.66 243.37 154.10 219.20 157.32 C 207.09 129.53 198.45 99.93 181.62 74.43 C 176.13 66.77 169.09 58.24 158.94 57.61 C 154.23 56.99 150.68 60.77 147.92 64.03 M 254.72 442.75 C 247.93 446.42 240.01 446.90 232.44 446.65 C 242.51 453.29 255.24 456.12 267.11 453.71 C 273.99 452.42 280.20 448.68 285.04 443.68 C 276.43 445.70 267.15 445.43 258.94 441.97 C 257.46 440.82 256.05 442.19 254.72 442.75 Z" />
<path fill="#030100" opacity="1.00" d=" M 184.36 273.27 C 187.33 265.55 196.06 260.70 204.19 262.68 L 203.42 263.50 C 199.56 266.08 199.74 271.91 203.63 274.33 C 205.61 276.52 208.63 275.19 210.29 273.32 C 212.27 271.14 212.89 268.18 213.86 265.49 C 216.31 270.60 219.85 275.90 218.73 281.85 C 217.55 286.01 215.12 290.00 211.44 292.40 C 204.69 296.81 195.03 296.28 188.94 290.94 C 184.15 286.64 181.73 279.37 184.36 273.27 Z" />
<path fill="#030100" opacity="1.00" d=" M 307.23 263.76 C 315.98 259.37 326.81 266.80 328.07 275.96 C 328.53 280.42 327.74 285.27 324.85 288.83 C 320.69 294.02 313.61 296.61 307.08 295.45 C 299.14 293.80 292.51 286.26 293.09 277.96 C 292.97 274.27 294.94 271.04 297.04 268.18 L 297.41 268.58 C 300.25 270.98 302.44 276.17 306.94 274.77 C 312.02 273.29 312.96 265.11 307.23 263.76 Z" />
</g>
<g id="#ce7341ff">
<path fill="#ce7341" opacity="1.00" d=" M 147.92 64.03 C 150.68 60.77 154.23 56.99 158.94 57.61 C 169.09 58.24 176.13 66.77 181.62 74.43 C 198.45 99.93 207.09 129.53 219.20 157.32 C 243.37 154.10 268.01 153.66 292.14 157.52 C 304.94 129.53 313.36 99.30 330.69 73.56 C 335.66 66.55 342.03 59.13 351.03 57.84 C 356.40 56.79 361.28 60.41 364.32 64.50 C 367.24 68.58 369.35 73.28 370.60 78.13 C 370.56 82.03 370.26 85.92 370.11 89.82 C 365.93 84.94 363.21 79.07 359.69 73.74 C 352.55 76.69 347.05 82.60 343.32 89.25 C 338.62 97.72 335.25 106.85 331.85 115.90 C 327.23 129.76 320.21 143.01 318.55 157.71 C 318.24 159.79 319.85 161.42 320.94 163.01 C 330.10 174.60 339.98 185.69 347.79 198.29 C 357.64 212.63 362.04 229.73 370.15 244.98 C 381.12 236.38 388.12 223.45 390.77 209.88 C 392.07 203.05 392.98 195.85 391.02 189.06 C 389.48 183.26 386.77 177.51 387.41 171.37 C 387.65 167.97 389.88 165.26 391.53 162.43 C 393.51 165.43 394.44 168.91 395.71 172.23 C 398.71 180.52 401.33 189.09 401.68 197.95 C 402.08 220.75 391.62 242.70 375.79 258.74 C 374.42 260.31 372.41 261.63 372.20 263.89 C 369.55 276.92 368.40 290.30 364.34 303.03 C 361.93 310.13 359.48 317.27 356.01 323.94 C 344.57 346.41 326.63 364.73 314.80 386.96 C 312.75 390.66 311.22 394.62 309.30 398.39 C 309.51 382.74 310.53 367.00 308.42 351.44 C 305.97 337.42 297.24 325.47 287.35 315.64 C 284.58 312.87 281.76 310.11 278.54 307.85 C 268.30 297.59 261.19 283.68 261.11 268.99 C 260.78 240.89 271.02 213.60 268.53 185.40 C 259.97 183.68 250.89 183.63 242.61 186.65 C 242.12 212.03 248.84 236.75 250.61 261.95 C 252.05 278.94 244.88 295.46 234.90 308.84 C 221.54 319.15 209.91 333.11 206.42 350.00 C 203.21 367.14 204.66 384.65 204.01 401.97 C 195.29 381.64 182.58 363.39 169.18 345.91 C 151.57 322.94 143.50 294.22 139.87 265.90 C 139.43 263.94 139.87 261.42 138.00 260.10 C 120.09 244.49 109.70 220.71 110.17 196.97 C 110.63 184.07 116.62 172.34 119.84 160.04 C 125.88 136.42 129.83 112.28 136.95 88.94 C 139.67 80.30 142.42 71.37 147.92 64.03 M 148.12 83.13 C 137.49 108.90 134.66 136.86 129.18 163.97 C 127.13 174.79 122.26 184.96 121.30 196.00 C 120.43 204.32 123.50 212.29 125.81 220.13 C 128.99 230.08 134.62 240.51 145.02 244.28 C 146.63 239.80 147.93 235.21 149.64 230.77 C 158.85 206.31 173.73 184.36 190.85 164.77 C 192.63 162.44 196.21 160.37 194.91 156.96 C 190.36 135.49 181.68 115.21 172.77 95.26 C 168.71 87.34 164.83 77.59 155.73 74.41 C 151.52 74.93 149.62 79.67 148.12 83.13 M 184.36 273.27 C 181.73 279.37 184.15 286.64 188.94 290.94 C 195.03 296.28 204.69 296.81 211.44 292.40 C 215.12 290.00 217.55 286.01 218.73 281.85 C 219.85 275.90 216.31 270.60 213.86 265.49 C 210.41 264.84 206.96 262.78 203.42 263.50 L 204.19 262.68 C 196.06 260.70 187.33 265.55 184.36 273.27 M 303.39 263.11 C 301.28 264.81 299.33 266.68 297.41 268.58 L 297.04 268.18 C 294.94 271.04 292.97 274.27 293.09 277.96 C 292.51 286.26 299.14 293.80 307.08 295.45 C 313.61 296.61 320.69 294.02 324.85 288.83 C 327.74 285.27 328.53 280.42 328.07 275.96 C 326.81 266.80 315.98 259.37 307.23 263.76 C 305.96 263.47 304.67 263.31 303.39 263.11 Z" />
</g>
<g id="#e3956fff">
<path fill="#e3956f" opacity="1.00" d=" M 148.12 83.13 C 149.62 79.67 151.52 74.93 155.73 74.41 C 164.83 77.59 168.71 87.34 172.77 95.26 C 181.68 115.21 190.36 135.49 194.91 156.96 C 196.21 160.37 192.63 162.44 190.85 164.77 C 173.73 184.36 158.85 206.31 149.64 230.77 C 147.93 235.21 146.63 239.80 145.02 244.28 C 134.62 240.51 128.99 230.08 125.81 220.13 C 123.50 212.29 120.43 204.32 121.30 196.00 C 122.26 184.96 127.13 174.79 129.18 163.97 C 134.66 136.86 137.49 108.90 148.12 83.13 Z" />
<path fill="#e3956f" opacity="1.00" d=" M 343.32 89.25 C 347.05 82.60 352.55 76.69 359.69 73.74 C 363.21 79.07 365.93 84.94 370.11 89.82 C 370.26 85.92 370.56 82.03 370.60 78.13 C 380.24 103.66 384.20 130.82 390.74 157.20 C 391.12 158.92 391.73 160.65 391.53 162.43 C 389.88 165.26 387.65 167.97 387.41 171.37 C 386.77 177.51 389.48 183.26 391.02 189.06 C 392.98 195.85 392.07 203.05 390.77 209.88 C 388.12 223.45 381.12 236.38 370.15 244.98 C 362.04 229.73 357.64 212.63 347.79 198.29 C 339.98 185.69 330.10 174.60 320.94 163.01 C 319.85 161.42 318.24 159.79 318.55 157.71 C 320.21 143.01 327.23 129.76 331.85 115.90 C 335.25 106.85 338.62 97.72 343.32 89.25 Z" />
</g>
<g id="#ffffffff">
<path fill="#ffffff" opacity="1.00" d=" M 242.61 186.65 C 250.89 183.63 259.97 183.68 268.53 185.40 C 271.02 213.60 260.78 240.89 261.11 268.99 C 261.19 283.68 268.30 297.59 278.54 307.85 C 288.56 321.15 298.43 335.41 301.88 351.99 C 304.28 371.93 303.14 392.07 302.38 412.08 C 302.45 415.91 300.27 419.26 298.40 422.44 C 293.59 429.90 286.34 436.36 277.46 438.25 C 272.88 439.07 267.77 438.75 263.75 436.25 C 259.85 431.48 259.44 425.04 257.88 419.31 C 266.53 414.40 274.31 407.70 279.44 399.09 C 277.93 396.98 276.75 394.58 274.90 392.75 C 262.85 385.12 245.80 385.43 234.60 394.53 C 238.73 394.67 242.90 394.52 246.98 395.34 C 244.53 396.39 241.66 397.39 240.45 400.01 C 239.56 402.07 241.00 403.93 241.83 405.73 C 239.01 403.39 236.08 401.19 232.96 399.27 C 237.14 409.38 246.90 415.47 256.44 419.81 C 255.50 425.68 255.17 432.35 250.77 436.85 C 246.60 440.67 240.30 441.05 235.00 440.00 C 225.10 437.79 217.51 430.05 212.45 421.62 C 209.45 415.88 210.80 409.19 210.56 403.00 C 210.91 386.97 210.01 370.85 212.27 354.93 C 214.50 337.51 225.02 322.79 234.90 308.84 C 244.88 295.46 252.05 278.94 250.61 261.95 C 248.84 236.75 242.12 212.03 242.61 186.65 Z" />
<path fill="#ffffff" opacity="1.00" d=" M 303.39 263.11 C 304.67 263.31 305.96 263.47 307.23 263.76 C 312.96 265.11 312.02 273.29 306.94 274.77 C 302.44 276.17 300.25 270.98 297.41 268.58 C 299.33 266.68 301.28 264.81 303.39 263.11 Z" />
<path fill="#ffffff" opacity="1.00" d=" M 203.63 274.33 C 199.74 271.91 199.56 266.08 203.42 263.50 C 206.96 262.78 210.41 264.84 213.86 265.49 C 212.89 268.18 212.27 271.14 210.29 273.32 C 208.63 275.19 205.61 276.52 203.63 274.33 Z" />
<path fill="#ffffff" opacity="1.00" d=" M 254.72 442.75 C 256.05 442.19 257.46 440.82 258.94 441.97 C 267.15 445.43 276.43 445.70 285.04 443.68 C 280.20 448.68 273.99 452.42 267.11 453.71 C 255.24 456.12 242.51 453.29 232.44 446.65 C 240.01 446.90 247.93 446.42 254.72 442.75 Z" />
</g>
<g id="#808080ff">
<path fill="#808080" opacity="1.00" d=" M 234.60 394.53 C 245.80 385.43 262.85 385.12 274.90 392.75 C 266.31 397.24 256.36 393.82 247.25 395.38 L 246.98 395.34 C 242.90 394.52 238.73 394.67 234.60 394.53 Z" />
</g>
</svg>
